<svg xmlns="http://www.w3.org/2000/svg" xmlns:xlink="http://www.w3.org/1999/xlink" width="131.03" height="91.461" viewBox="0 0 131.03 91.461">
  <defs>
    <clipPath id="clip-path">
      <path id="Path_6" data-name="Path 6" d="M0-47.861H131.03v-91.461H0Z" transform="translate(0 139.322)" fill="none"/>
    </clipPath>
  </defs>
  <g id="Group_18" data-name="Group 18" transform="translate(0 139.322)">
    <g id="Group_6" data-name="Group 6" transform="translate(0 -139.322)" clip-path="url(#clip-path)">
      <g id="Group_1" data-name="Group 1" transform="translate(48.864 22.862)">
        <path id="Path_1" data-name="Path 1" d="M-3.43-6.883a6.553,6.553,0,0,0,6.6-6.555,6.59,6.59,0,0,0-6.6-6.6,6.553,6.553,0,0,0-6.555,6.6A6.515,6.515,0,0,0-3.43-6.883" transform="translate(9.985 20.037)" fill="#0f2b92"/>
      </g>
      <g id="Group_2" data-name="Group 2" transform="translate(68.081 61.647)">
        <path id="Path_2" data-name="Path 2" d="M-3.177,0A6.61,6.61,0,0,0-9.248,4.047H2.85A6.665,6.665,0,0,0-3.177,0" transform="translate(9.248)" fill="#0f2b92"/>
      </g>
      <g id="Group_3" data-name="Group 3" transform="translate(102.485 61.691)">
        <path id="Path_3" data-name="Path 3" d="M-3.453-6.883a6.553,6.553,0,0,0,6.6-6.555,6.59,6.59,0,0,0-6.6-6.6,6.59,6.59,0,0,0-6.6,6.6,6.553,6.553,0,0,0,6.6,6.555" transform="translate(10.052 20.037)" fill="#0f2b92"/>
      </g>
      <g id="Group_4" data-name="Group 4" transform="translate(114.613 25.953)">
        <path id="Path_4" data-name="Path 4" d="M-1.807,0A3.452,3.452,0,0,0-5.26,3.476,3.432,3.432,0,0,0-1.807,6.929,3.451,3.451,0,0,0,1.669,3.476,3.471,3.471,0,0,0-1.807,0" transform="translate(5.26)" fill="#0f2b92"/>
      </g>
      <g id="Group_5" data-name="Group 5" transform="translate(0 0)">
        <path id="Path_5" data-name="Path 5" d="M-46.4-8.7a5.616,5.616,0,0,0-.368-2.006,9.959,9.959,0,0,0,1.116-4.593A10.028,10.028,0,0,0-55.668-25.311a10.028,10.028,0,0,0-9.638,7.322c-.131-.009-.261-.02-.394-.02h-7.347a5.615,5.615,0,0,0-4.788,2.677q-.9-.082-1.811-.081A19.373,19.373,0,0,0-90.688-11.97a5.6,5.6,0,0,0-.875-.668L-97.9-16.553a5.589,5.589,0,0,0-2.948-.84,5.615,5.615,0,0,0-4.784,2.663l-6.351,10.269-6.353-10.269a5.613,5.613,0,0,0-4.783-2.663,5.589,5.589,0,0,0-2.948.84l-6.335,3.915a5.619,5.619,0,0,0-2.514,3.488,5.618,5.618,0,0,0,.69,4.245l17.351,28.058-4.93,2.2a5.618,5.618,0,0,0-2.853,7.387l12.494,28.463a5.618,5.618,0,0,0,5.144,3.36h0a5.618,5.618,0,0,0,5.143-3.365l4-9.143,4,9.144a5.619,5.619,0,0,0,5.144,3.364h0a5.618,5.618,0,0,0,5.144-3.36l3.929-8.95A19.551,19.551,0,0,0-60.957,66.15h1.1a5.618,5.618,0,0,0,5.618-5.618V53.349h3.616a5.59,5.59,0,0,0,1.6,3.441l5.1,5.147A5.62,5.62,0,0,0-39.938,63.6h.012a5.618,5.618,0,0,0,3.973-1.645l1.42-1.421A19.48,19.48,0,0,0-25.981,62.5,19.586,19.586,0,0,0-6.418,42.935,19.563,19.563,0,0,0-25.981,23.416q-.493,0-.981.024v-2.5c0-.03,0-.06,0-.089a5.622,5.622,0,0,0,1.652-.323,5.617,5.617,0,0,0,3.632-4.347,12.869,12.869,0,0,0,4.513.878A5.6,5.6,0,0,0-13.523,18.4h3.87a5.618,5.618,0,0,0,5.618-5.618V-4.6a5.618,5.618,0,0,0-5.618-5.618h-3.87A5.6,5.6,0,0,0-17.2-8.845a12.84,12.84,0,0,0-6.459,1.853A5.592,5.592,0,0,0-27.22-8.267h-3.87a5.591,5.591,0,0,0-2.783.737l-2.556-3.084a5.618,5.618,0,0,0-4.326-2.033,5.619,5.619,0,0,0-1.905.333,5.618,5.618,0,0,0-3.712,5.285Zm5.644,1.666L-31.09,4.628V-2.649h3.06a12.9,12.9,0,0,0-1.91,6.767,12.873,12.873,0,0,0,2.72,7.923v3.2L-36.884,3.585v7.278h-3.871ZM-52.017,16.952h-7.347V-8.7h7.347Zm-3.651-36.645a4.383,4.383,0,0,1,4.4,4.4,4.412,4.412,0,0,1-4.4,4.4,4.384,4.384,0,0,1-4.4-4.4,4.356,4.356,0,0,1,4.4-4.4M-73.047-8.079V-12.39H-65.7V20.6h-7.347V16.336a13.162,13.162,0,0,1-6.6,1.716,13.875,13.875,0,0,1-13.9-13.9,14.018,14.018,0,0,1,.5-3.7l3.31-5.354a5.584,5.584,0,0,0,.5-1.039,13.822,13.822,0,0,1,9.592-3.851,13.162,13.162,0,0,1,6.6,1.715m-50.065-3.7,11.13,17.993,11.129-17.993,5.985,3.7a19.545,19.545,0,0,0-3.341,6.186l-13.773,22.273L-129.447-7.859Zm34.393,70.723-9.15-20.9-9.151,20.9-12.494-28.463,6.6-2.948,5.9,13.462,9.151-20.9,9.15,20.9,5.9-13.462,6.6,2.948-.309.7a19.427,19.427,0,0,0-3.624,8.254Zm21.3-11.218a6.64,6.64,0,0,0,6.467,5.5h1.1v7.3h-1.1a13.874,13.874,0,0,1-13.9-13.9v-3.7a14.1,14.1,0,0,1,.129-1.881l3.081-7.02a13.862,13.862,0,0,1,10.691-5,13.912,13.912,0,0,1,13.945,13.9V46.87l-.86.861Zm41.442-18.7a13.912,13.912,0,0,1,13.945,13.9A13.95,13.95,0,0,1-25.981,56.88a13.83,13.83,0,0,1-9.282-3.563l-4.664,4.663-5-5.038a5.628,5.628,0,0,0,3.248-3.464l1.748-1.748V20.939h7.347v9.81a13.164,13.164,0,0,1,6.6-1.716M-9.653,12.786h-3.87V10.538a6.928,6.928,0,0,1-3.477.9,7.3,7.3,0,0,1-4.6-1.624V-1.595A7.274,7.274,0,0,1-17-3.229a6.935,6.935,0,0,1,3.477.9V-4.6h3.87Z" transform="translate(135.065 25.311)" fill="#0f2b92"/>
      </g>
    </g>
    <g id="Group_7" data-name="Group 7" transform="translate(5.618 -125.786)">
      <path id="Path_7" data-name="Path 7" d="M-9.139-9.415,1.991-27.408l6.335,3.915L-9.139,4.75-26.6-23.493l6.335-3.915Z" transform="translate(26.604 27.408)" fill="#ffac2d"/>
    </g>
    <g id="Group_10" data-name="Group 10" transform="translate(0 -139.322)" clip-path="url(#clip-path)">
      <g id="Group_8" data-name="Group 8" transform="translate(41.517 12.921)">
        <path id="Path_8" data-name="Path 8" d="M-14.572,0V32.994h-7.347V28.726a13.162,13.162,0,0,1-6.6,1.715,13.874,13.874,0,0,1-13.9-13.9A13.912,13.912,0,0,1-28.518,2.6a13.162,13.162,0,0,1,6.6,1.715V0Zm-20.5,16.541A6.515,6.515,0,0,0-28.518,23.1a6.552,6.552,0,0,0,6.6-6.554,6.59,6.59,0,0,0-6.6-6.6,6.553,6.553,0,0,0-6.555,6.6" transform="translate(42.419)" fill="#ffac2d"/>
      </g>
      <g id="Group_9" data-name="Group 9" transform="translate(74.997 5.618)">
        <path id="Path_9" data-name="Path 9" d="M-2.3-4.6A4.384,4.384,0,0,1-6.7-9a4.356,4.356,0,0,1,4.4-4.4A4.383,4.383,0,0,1,2.1-9,4.412,4.412,0,0,1-2.3-4.6M1.349,23.243H-6V-2.4H1.349Z" transform="translate(6.701 13.402)" fill="#ffac2d"/>
      </g>
    </g>
    <g id="Group_11" data-name="Group 11" transform="translate(15.552 -93.908)">
      <path id="Path_11" data-name="Path 11" d="M-6.538-10.935l9.15-20.9,9.151,20.9,5.9-13.462,6.6,2.948L11.762,7.014l-9.151-20.9-9.15,20.9L-19.032-21.449l6.6-2.948Z" transform="translate(19.032 31.831)" fill="#ffac2d"/>
    </g>
    <g id="Group_14" data-name="Group 14" transform="translate(0 -139.322)" clip-path="url(#clip-path)">
      <g id="Group_12" data-name="Group 12" transform="translate(60.207 54.344)">
        <path id="Path_12" data-name="Path 12" d="M-7.275-12.661h1.1v7.3h-1.1a13.874,13.874,0,0,1-13.9-13.9v-3.7a13.875,13.875,0,0,1,13.9-13.9,13.912,13.912,0,0,1,13.945,13.9v4.8H-13.741a6.64,6.64,0,0,0,6.467,5.5m.044-16.893A6.608,6.608,0,0,0-13.3-25.507H-1.2a6.664,6.664,0,0,0-6.027-4.048" transform="translate(21.176 36.857)" fill="#ffac2d"/>
      </g>
      <g id="Group_13" data-name="Group 13" transform="translate(90.035 46.25)">
        <path id="Path_13" data-name="Path 13" d="M-9.968-4.236A13.912,13.912,0,0,1,3.978,9.666,13.95,13.95,0,0,1-9.968,23.611a13.833,13.833,0,0,1-9.282-3.563l-4.663,4.663-5.1-5.147,5.1-5.1V-12.33h7.347v9.81a13.155,13.155,0,0,1,6.6-1.716m-6.6,13.945a6.553,6.553,0,0,0,6.6,6.555,6.553,6.553,0,0,0,6.6-6.555,6.59,6.59,0,0,0-6.6-6.6,6.59,6.59,0,0,0-6.6,6.6" transform="translate(29.016 12.33)" fill="#ffac2d"/>
      </g>
    </g>
    <g id="Group_15" data-name="Group 15" transform="translate(94.31 -121.04)">
      <path id="Path_15" data-name="Path 15" d="M-7.083-11.655l-9.664-11.657v7.277h-3.871V-33.926l9.665,11.657v-7.277h3.87Z" transform="translate(20.617 33.926)" fill="#ff611e"/>
    </g>
    <g id="Group_17" data-name="Group 17" transform="translate(0 -139.322)" clip-path="url(#clip-path)">
      <g id="Group_16" data-name="Group 16" transform="translate(110.742 20.715)">
        <path id="Path_16" data-name="Path 16" d="M-7.677,0V17.381h-3.871V15.134a6.934,6.934,0,0,1-3.476.9,7.309,7.309,0,0,1-7.324-7.323,7.329,7.329,0,0,1,7.324-7.347,6.928,6.928,0,0,1,3.476.9V0Zm-10.8,8.714a3.432,3.432,0,0,0,3.453,3.453,3.452,3.452,0,0,0,3.476-3.453,3.472,3.472,0,0,0-3.476-3.477,3.452,3.452,0,0,0-3.453,3.477" transform="translate(22.347)" fill="#ff611e"/>
      </g>
    </g>
  </g>
</svg>
